<svg width="150" height="40" fill="none" xmlns="http://www.w3.org/2000/svg"><rect x="1" width="148" height="40" rx="6" fill="#BF2A09"/><mask id="a" style="mask-type:alpha" maskUnits="userSpaceOnUse" x="130" y="0" width="20" height="40"><rect x="130.5" y=".5" width="19" height="39" rx="5.5" fill="#EF3E16" stroke="#EF3E16"/></mask><g mask="url(#a)"><path fill-rule="evenodd" clip-rule="evenodd" d="M142.833 24.474l4.833 4.636-1.205 1.184-1.206 1.184 1.17 1.052 1.169 1.05-3.516 3.37c-1.935 1.854-3.517 3.433-3.516 3.51.001.078 2.057.186 4.57.24l4.568.1 3.75-3.573 3.75-3.573-1.122-1.104-1.122-1.103 1.116-1.098 1.117-1.099-4.826-4.64 5.175-4.641-5.238-4.58c2.62-2.52 4.763-4.71 4.763-4.866 0-.156-.449-.703-.998-1.214l-.997-.928.997-.981c.549-.54.998-1.101.998-1.247 0-.146-1.57-1.77-3.489-3.61L150.084-.8h-9.657l3.624 3.488 3.623 3.488-1.143 1.098-1.143 1.098 1.148 1.076 1.148 1.077-4.842 4.657L138 19.838l4.833 4.636z" fill="#EF3E16"/></g><mask id="b" style="mask-type:alpha" maskUnits="userSpaceOnUse" x="0" y="0" width="20" height="40"><rect x="-.5" y=".5" width="19" height="39" rx="5.5" transform="matrix(-1 0 0 1 19 0)" fill="#EF3E16" stroke="#EF3E16"/></mask><g mask="url(#b)"><path fill-rule="evenodd" clip-rule="evenodd" d="M7.167 24.474L2.334 29.11l1.205 1.184 1.206 1.184-1.17 1.052-1.169 1.05 3.516 3.37c1.935 1.854 3.516 3.433 3.516 3.51 0 .078-2.057.186-4.57.24L.3 40.8l-3.75-3.573-3.75-3.573 1.122-1.104 1.122-1.103-1.116-1.098-1.117-1.099 4.826-4.64-5.175-4.641 5.238-4.58c-2.62-2.52-4.763-4.71-4.763-4.866 0-.156.45-.703.998-1.214l.997-.928-.997-.981c-.549-.54-.998-1.101-.998-1.247 0-.146 1.57-1.77 3.49-3.61L-.085-.8h9.657L5.95 2.688 2.326 6.176l1.143 1.098 1.143 1.098-1.148 1.076-1.148 1.077 4.842 4.657L12 19.838l-4.833 4.636z" fill="#EF3E16"/></g></svg>