<svg width="320" height="51" fill="none" xmlns="http://www.w3.org/2000/svg"><rect x="1" y=".711" width="319" height="50" rx="6" fill="#EF3E16"/><mask id="a" style="mask-type:alpha" maskUnits="userSpaceOnUse" x="295" y="0" width="25" height="51"><path d="M295.5 1.21H314a5.5 5.5 0 015.5 5.5v38a5.5 5.5 0 01-5.5 5.5h-18.5v-49z" fill="#EF3E16" stroke="#EF3E16"/></mask><g mask="url(#a)"><path fill-rule="evenodd" clip-rule="evenodd" d="M311.041 31.304l6.042 5.795-1.507 1.48-1.507 1.48 1.462 1.314 1.461 1.314-4.395 4.212c-2.418 2.317-4.395 4.291-4.394 4.388 0 .097 2.571.232 5.712.3l5.71.124 4.688-4.466L329 42.779l-1.403-1.38-1.402-1.38 1.395-1.372 1.396-1.373-6.032-5.8 3.968-5.802-4.047-5.725c3.275-3.149 5.954-5.886 5.954-6.082 0-.196-.562-.879-1.247-1.517l-1.247-1.16 1.247-1.227c.685-.675 1.247-1.376 1.247-1.559 0-.183-1.963-2.213-4.362-4.512l-4.362-4.18h-12.071l4.529 4.361 4.53 4.36-1.429 1.372-1.429 1.373 1.435 1.345 1.435 1.346-6.052 5.821-6.053 5.82 6.041 5.796z" fill="#BF2A09"/></g><mask id="b" style="mask-type:alpha" maskUnits="userSpaceOnUse" x="0" y="0" width="25" height="51"><path d="M24.5 1.21H6a5.5 5.5 0 00-5.5 5.5v38a5.5 5.5 0 005.5 5.5h18.5v-49z" fill="#EF3E16" stroke="#EF3E16"/></mask><g mask="url(#b)"><path fill-rule="evenodd" clip-rule="evenodd" d="M8.959 31.304l-6.042 5.795 1.507 1.48 1.507 1.48-1.462 1.314-1.461 1.314L7.403 46.9c2.418 2.317 4.395 4.291 4.394 4.388 0 .097-2.57.232-5.712.3l-5.71.124-4.688-4.466L-9 42.779l1.403-1.38 1.402-1.38-1.395-1.372-1.396-1.373 6.032-5.8-3.968-5.802 4.047-5.725C-6.15 16.798-8.83 14.06-8.83 13.865c0-.196.562-.879 1.247-1.517l1.247-1.16-1.247-1.227c-.685-.675-1.247-1.376-1.247-1.559 0-.183 1.963-2.213 4.362-4.512L-.105-.29h12.071l-4.53 4.361-4.529 4.36 1.429 1.372 1.429 1.373L4.33 12.52l-1.435 1.346 6.052 5.821L15 25.508l-6.041 5.796z" fill="#BF2A09"/></g></svg>