<svg width="320" height="530" fill="none" xmlns="http://www.w3.org/2000/svg"><g opacity=".3"><path opacity=".1" fill-rule="evenodd" clip-rule="evenodd" d="M125.582 36.062L89.919 72.124l-9.106-8.993-9.11-8.995-8.086 8.726-8.087 8.723-25.92-26.237c-14.255-14.432-26.405-26.235-27-26.231-.595.004-1.425 15.347-1.846 34.096L0 87.301l27.483 27.98 27.484 27.98 8.49-8.373 8.49-8.373 8.447 8.331 8.447 8.33 35.698-36.005 35.699-36.004 35.233 35.535c19.378 19.544 36.22 35.536 37.427 35.536 1.204 0 5.407-3.35 9.336-7.443l7.143-7.443 7.546 7.443c4.152 4.093 8.468 7.443 9.592 7.443 1.125 0 13.62-11.717 27.765-26.036L320 90.165V18.108l-26.832 27.038-26.833 27.037-8.443-8.527-8.444-8.528-8.282 8.566-8.283 8.566-35.82-36.13L161.244 0l-35.662 36.062zM.672 256.345L.276 385.312l27.427 27.568 27.429 27.566V325.671l8.442-8.327 8.444-8.326 8.898 8.987 8.9 8.986.537 74.803.536 74.803 26.266 26.526 26.266 26.526V311.095l-18.349-18.618-18.35-18.618 18.35-18.618 18.349-18.618V182c0-30.042-.725-54.623-1.61-54.623-.885 0-12.709 11.239-26.277 24.976l-24.666 24.976v36.12L72.999 231.4 55.13 249.352v-70.027l-25.78-25.974c-14.181-14.285-26.344-25.974-27.031-25.974-.686 0-1.428 58.034-1.646 128.968zm178.485 71.644v201.618l26.276-26.473 26.277-26.473V253.869l9.287 9.205 9.288 9.205 6.697-7.702c3.683-4.235 7.545-7.702 8.581-7.702 1.081 0 1.884 39.081 1.884 91.785v91.784l26.276-26.473L320 387.498V126.365l-34.631 34.924-34.628 34.924-6.889-6.235c-3.788-3.427-19.892-19.143-35.791-34.92l-28.904-28.685v201.616z" fill="#472D1C"/></g></svg>