<svg width="44" height="73" fill="none" xmlns="http://www.w3.org/2000/svg"><path fill-rule="evenodd" clip-rule="evenodd" d="M17.267 4.968l-4.903 4.968-1.252-1.239-1.253-1.239L8.747 8.66 7.635 9.862 4.071 6.247C2.111 4.26.441 2.633.36 2.634c-.082 0-.196 2.114-.254 4.697L0 12.027l3.779 3.855 3.779 3.854 1.167-1.153 1.168-1.154 1.161 1.148 1.162 1.148 4.908-4.96 4.909-4.96 4.844 4.895c2.665 2.692 4.98 4.895 5.146 4.895.166 0 .744-.461 1.284-1.025l.982-1.025 1.038 1.025c.57.564 1.164 1.025 1.319 1.025.154 0 1.873-1.614 3.818-3.586L44 12.42V2.495L40.31 6.22l-3.689 3.724-1.16-1.174-1.162-1.175-1.139 1.18-1.139 1.18-4.925-4.978L22.171 0l-4.904 4.968zM.092 35.315L.038 53.083l3.771 3.797 3.771 3.798V44.866l1.161-1.147 1.161-1.147 1.224 1.238 1.224 1.238.073 10.305.074 10.305 3.612 3.655 3.611 3.654V42.858l-2.523-2.565-2.523-2.565 2.523-2.565 2.523-2.565v-7.525c0-4.138-.1-7.525-.221-7.525-.122 0-1.748 1.548-3.613 3.44l-3.392 3.442v4.976l-2.457 2.473-2.457 2.473v-9.647l-3.544-3.579C2.086 19.158.413 17.548.319 17.548c-.094 0-.196 7.995-.227 17.767zm24.542 9.87v27.776l3.613-3.647 3.613-3.647V34.974l1.277 1.268 1.277 1.269.921-1.062c.506-.583 1.037-1.06 1.18-1.06.148 0 .259 5.383.259 12.644v12.645l3.613-3.647L44 53.384V17.409l-4.762 4.81-4.761 4.812-.947-.859c-.521-.472-2.736-2.637-4.922-4.81l-3.974-3.952v27.775z" fill="#EF3E16"/></svg>