<svg width="150" height="40" viewBox="0 0 150 40" fill="none" xmlns="http://www.w3.org/2000/svg">
<rect x="1.5" y="0.5" width="147" height="39" rx="5.5" fill="#EF3E16" stroke="#EF3E16"/>
<mask id="mask0" style="mask-type:alpha" maskUnits="userSpaceOnUse" x="130" y="0" width="20" height="40">
<rect x="130.5" y="0.5" width="19" height="39" rx="5.5" fill="#EF3E16" stroke="#EF3E16"/>
</mask>
<g mask="url(#mask0)">
<path fill-rule="evenodd" clip-rule="evenodd" d="M142.833 24.4742L147.666 29.1103L146.461 30.2942L145.255 31.4783L146.425 32.5296L147.594 33.5809L144.078 36.9504C142.143 38.8038 140.561 40.3833 140.562 40.4607C140.563 40.538 142.619 40.6459 145.132 40.7006L149.7 40.7998L153.45 37.227L157.2 33.6541L156.078 32.5504L154.956 31.4466L156.072 30.3486L157.189 29.2505L152.363 24.6097L157.538 19.9689L152.3 15.3885C154.92 12.8694 157.063 10.6799 157.063 10.5231C157.063 10.3665 156.614 9.8202 156.065 9.30945L155.068 8.38085L156.065 7.39978C156.614 6.86006 157.063 6.29901 157.063 6.15281C157.063 6.00661 155.493 4.38225 153.574 2.54336L150.084 -0.800194L145.255 -0.800194L140.427 -0.800194L144.051 2.68792L147.674 6.17631L146.531 7.2738L145.388 8.37156L146.536 9.44827L147.684 10.525L142.842 15.1816L138 19.838L142.833 24.4742Z" fill="#BF2A09"/>
</g>
<mask id="mask1" style="mask-type:alpha" maskUnits="userSpaceOnUse" x="0" y="0" width="20" height="40">
<rect x="-0.5" y="0.5" width="19" height="39" rx="5.5" transform="matrix(-1 0 0 1 19 0)" fill="#EF3E16" stroke="#EF3E16"/>
</mask>
<g mask="url(#mask1)">
<path fill-rule="evenodd" clip-rule="evenodd" d="M7.16693 24.4742L2.33385 29.1103L3.53906 30.2942L4.74456 31.4783L3.57519 32.5296L2.40612 33.5809L5.92245 36.9504C7.85659 38.8038 9.4385 40.3833 9.43793 40.4607C9.43736 40.538 7.38117 40.6459 4.86832 40.7006L0.299845 40.7998L-3.45008 37.227L-7.2 33.6541L-6.07787 32.5504L-4.95574 31.4466L-6.07218 30.3486L-7.18862 29.2505L-2.36322 24.6097L-7.53783 19.9689L-2.30035 15.3885C-4.9196 12.8694 -7.06286 10.6799 -7.06286 10.5231C-7.06286 10.3665 -6.6139 9.8202 -6.06535 9.30945L-5.06783 8.38085L-6.06535 7.39978C-6.6139 6.86006 -7.06286 6.29901 -7.06286 6.15281C-7.06286 6.00661 -5.49262 4.38225 -3.57356 2.54336L-0.0839663 -0.800194L4.74456 -0.800194L9.57308 -0.800194L5.94948 2.68792L2.32589 6.17631L3.46879 7.2738L4.61169 8.37156L3.46367 9.44827L2.31564 10.525L7.15782 15.1816L12 19.838L7.16693 24.4742Z" fill="#BF2A09"/>
</g>
</svg>
