<svg width="320" height="51" viewBox="0 0 320 51" fill="none" xmlns="http://www.w3.org/2000/svg">
<rect x="1" y="0.710938" width="319" height="50" rx="6" fill="#EF3E16"/>
<mask id="mask0" style="mask-type:alpha" maskUnits="userSpaceOnUse" x="295" y="0" width="25" height="51">
<path d="M295.5 1.21094H314C317.038 1.21094 319.5 3.67337 319.5 6.71094V44.7109C319.5 47.7485 317.038 50.2109 314 50.2109H295.5V1.21094Z" fill="#EF3E16" stroke="#EF3E16"/>
</mask>
<g mask="url(#mask0)">
<path fill-rule="evenodd" clip-rule="evenodd" d="M311.041 31.3039L317.083 37.0991L315.576 38.5789L314.069 40.0591L315.531 41.3732L316.992 42.6873L312.597 46.8992C310.179 49.2159 308.202 51.1903 308.203 51.287C308.203 51.3837 310.774 51.5186 313.915 51.5869L319.625 51.7109L324.313 47.2449L329 42.7788L327.597 41.3991L326.195 40.0194L327.59 38.6469L328.986 37.2743L322.954 31.4733L326.922 25.6723L322.875 19.9468C326.15 16.798 328.829 14.0611 328.829 13.865C328.829 13.6693 328.267 12.9864 327.582 12.348L326.335 11.1872L327.582 9.96091C328.267 9.28625 328.829 8.58495 328.829 8.4022C328.829 8.21944 326.866 6.18899 324.467 3.89038L320.105 -0.289059L314.069 -0.289059L308.034 -0.289059L312.563 4.07109L317.093 8.43158L315.664 9.80343L314.235 11.1756L315.67 12.5215L317.105 13.8674L311.053 19.6882L305 25.5087L311.041 31.3039Z" fill="#BF2A09"/>
</g>
<mask id="mask1" style="mask-type:alpha" maskUnits="userSpaceOnUse" x="0" y="0" width="25" height="51">
<path d="M24.5 1.21094H6C2.96243 1.21094 0.5 3.67337 0.5 6.71094V44.7109C0.5 47.7485 2.96243 50.2109 6 50.2109H24.5V1.21094Z" fill="#EF3E16" stroke="#EF3E16"/>
</mask>
<g mask="url(#mask1)">
<path fill-rule="evenodd" clip-rule="evenodd" d="M8.95866 31.3039L2.91731 37.0991L4.42383 38.5789L5.93069 40.0591L4.46899 41.3732L3.00765 42.6873L7.40306 46.8992C9.82074 49.2159 11.7981 51.1903 11.7974 51.287C11.7967 51.3837 9.22646 51.5186 6.0854 51.5869L0.374804 51.7109L-4.3126 47.2449L-9 42.7788L-7.59734 41.3991L-6.19467 40.0194L-7.59022 38.6469L-8.98577 37.2743L-2.95403 31.4733L-6.92229 25.6723L-2.87544 19.9468C-6.1495 16.798 -8.82858 14.0611 -8.82858 13.865C-8.82858 13.6693 -8.26737 12.9864 -7.58169 12.348L-6.33479 11.1872L-7.58169 9.96091C-8.26737 9.28625 -8.82858 8.58495 -8.82858 8.4022C-8.82858 8.21944 -6.86577 6.18899 -4.46695 3.89038L-0.104959 -0.289059L5.9307 -0.289059L11.9663 -0.289059L7.43685 4.07109L2.90736 8.43158L4.33598 9.80343L5.76461 11.1756L4.32958 12.5215L2.89455 13.8674L8.94728 19.6882L15 25.5087L8.95866 31.3039Z" fill="#BF2A09"/>
</g>
</svg>
