<svg width="1920" height="1070" viewBox="0 0 1920 1070" fill="none" xmlns="http://www.w3.org/2000/svg">
<path d="M1814.57 -260.471C1857.85 -12.838 1768.3 251.652 1592.97 467.347C1417.65 683.039 1156.6 849.895 856.961 902.266C847.93 903.845 836.909 905.904 824.136 908.291C724.028 926.998 516.31 965.813 315.355 950.819C202.061 942.365 90.9649 916.811 2.53217 860.943C-85.8815 805.088 -151.669 718.917 -174.349 589.154C-178.867 563.306 -183.277 538.537 -187.505 514.79C-204.528 419.174 -218.601 340.131 -224.883 273.972C-232.726 191.382 -228.413 128.973 -202.609 79.5385C-176.814 30.1212 -129.492 -6.42006 -51.1003 -37.1582C27.2981 -67.8991 136.706 -92.8106 286.586 -119.007C586.348 -171.4 964.022 -232.151 1268.98 -267.06C1421.46 -284.514 1555.75 -295.506 1653.02 -295.765C1701.66 -295.894 1741.01 -293.339 1768.75 -287.576C1782.63 -284.695 1793.56 -281.017 1801.29 -276.494C1809.03 -271.971 1813.49 -266.642 1814.57 -260.471Z" stroke="#EF421A"/>
</svg>
